<?xml version="1.0" encoding="UTF-8" standalone="no"?>
<!DOCTYPE svg PUBLIC "-//W3C//DTD SVG 1.1//EN" "http://www.w3.org/Graphics/SVG/1.1/DTD/svg11.dtd">
<svg width="100%" height="100%" viewBox="0 0 305 102" version="1.1" xmlns="http://www.w3.org/2000/svg" xmlns:xlink="http://www.w3.org/1999/xlink" xml:space="preserve" xmlns:serif="http://www.serif.com/" style="fill-rule:evenodd;clip-rule:evenodd;">
    <g transform="matrix(1,0,0,1,-412,-12)">
        <g id="agentos-logo" transform="matrix(0.654703,0,0,0.543011,-41.2516,-710.788)">
            <rect x="693" y="1332" width="464" height="186" style="fill:none;"/>
            <clipPath id="_clip1">
                <rect x="693" y="1332" width="464" height="186"/>
            </clipPath>
            <g clip-path="url(#_clip1)">
                <g id="frame-layer" transform="matrix(0.682299,0,0,0.822642,1038.89,1333.32)">
                    <path d="M164.529,52.792L164.529,120.844C164.529,145.347 144.635,165.241 120.132,165.241L52.08,165.241C27.577,165.241 7.683,145.347 7.683,120.844L7.683,52.792C7.683,28.289 27.577,8.395 52.08,8.395L120.132,8.395C144.635,8.395 164.529,28.289 164.529,52.792Z" style="fill:none;stroke:black;stroke-width:15.18px;"/>
                </g>
                <g id="text-layer" transform="matrix(2.17521,0,0,2.62263,-891.914,764.236)">
                    <g transform="matrix(50.1389,0,0,50.1389,727.418,261.867)">
                        <path d="M0.191,0.017C0.16,0.017 0.134,0.01 0.112,-0.003C0.09,-0.016 0.073,-0.036 0.062,-0.061C0.05,-0.086 0.044,-0.116 0.044,-0.151C0.044,-0.18 0.048,-0.212 0.056,-0.245C0.064,-0.278 0.076,-0.311 0.093,-0.344C0.109,-0.376 0.13,-0.405 0.155,-0.432C0.18,-0.459 0.21,-0.48 0.245,-0.496C0.28,-0.511 0.319,-0.519 0.364,-0.519C0.394,-0.519 0.422,-0.513 0.449,-0.502C0.476,-0.49 0.5,-0.475 0.521,-0.458L0.509,-0.389C0.482,-0.408 0.458,-0.422 0.437,-0.429C0.416,-0.436 0.394,-0.44 0.371,-0.44C0.336,-0.44 0.305,-0.434 0.279,-0.421C0.252,-0.408 0.23,-0.392 0.211,-0.371C0.192,-0.349 0.177,-0.327 0.166,-0.302C0.155,-0.277 0.147,-0.252 0.142,-0.227C0.137,-0.202 0.134,-0.18 0.134,-0.16C0.134,-0.139 0.137,-0.121 0.144,-0.107C0.15,-0.092 0.159,-0.081 0.172,-0.074C0.185,-0.067 0.2,-0.063 0.219,-0.063C0.242,-0.063 0.265,-0.07 0.288,-0.083C0.31,-0.096 0.332,-0.114 0.353,-0.139C0.374,-0.164 0.394,-0.193 0.412,-0.226L0.429,-0.179C0.404,-0.124 0.377,-0.083 0.348,-0.055C0.319,-0.026 0.29,-0.007 0.263,0.003C0.235,0.012 0.211,0.017 0.191,0.017ZM0.486,0.017C0.463,0.017 0.443,0.013 0.426,0.005C0.409,-0.003 0.397,-0.015 0.388,-0.03C0.379,-0.045 0.374,-0.062 0.373,-0.083C0.372,-0.104 0.376,-0.127 0.384,-0.153L0.492,-0.483C0.497,-0.496 0.502,-0.505 0.509,-0.509C0.515,-0.513 0.524,-0.515 0.537,-0.515C0.558,-0.515 0.571,-0.512 0.577,-0.506C0.582,-0.499 0.583,-0.489 0.578,-0.476L0.469,-0.141C0.458,-0.11 0.457,-0.088 0.465,-0.076C0.472,-0.064 0.488,-0.058 0.511,-0.058C0.52,-0.058 0.527,-0.054 0.531,-0.047C0.534,-0.039 0.535,-0.03 0.534,-0.021C0.532,-0.011 0.527,-0.002 0.519,0.006C0.511,0.013 0.5,0.017 0.486,0.017Z" style="fill-rule:nonzero;stroke:black;stroke-width:0.01px;stroke-linejoin:round;stroke-miterlimit:2;"/>
                    </g>
                    <g transform="matrix(50.1389,0,0,50.1389,758.654,261.867)">
                        <path d="M-0.137,0.017C-0.146,0.017 -0.153,0.013 -0.157,0.006C-0.161,-0.002 -0.162,-0.011 -0.16,-0.021C-0.158,-0.03 -0.153,-0.039 -0.145,-0.047C-0.137,-0.054 -0.126,-0.058 -0.112,-0.058C-0.095,-0.058 -0.077,-0.061 -0.06,-0.067C-0.043,-0.072 -0.026,-0.081 -0.01,-0.092C0.006,-0.103 0.02,-0.117 0.033,-0.134C0.046,-0.15 0.056,-0.169 0.063,-0.19C0.066,-0.2 0.072,-0.205 0.08,-0.206C0.088,-0.206 0.095,-0.203 0.102,-0.197C0.108,-0.19 0.11,-0.182 0.108,-0.173C0.101,-0.144 0.09,-0.118 0.074,-0.095C0.058,-0.072 0.039,-0.052 0.017,-0.035C-0.006,-0.018 -0.03,-0.006 -0.057,0.004C-0.083,0.013 -0.11,0.017 -0.137,0.017Z" style="fill-rule:nonzero;stroke:black;stroke-width:0.01px;stroke-linejoin:round;stroke-miterlimit:2;"/>
                    </g>
                    <g transform="matrix(50.1389,0,0,50.1389,758.654,261.867)">
                    </g>
                    <g transform="matrix(50.1389,0,0,50.1389,758.654,261.867)">
                    </g>
                    <g transform="matrix(50.1389,0,0,50.1389,758.654,261.867)">
                        <path d="M0.11,0.5C0.069,0.5 0.036,0.489 0.012,0.466C-0.012,0.443 -0.024,0.414 -0.024,0.378C-0.024,0.348 -0.018,0.32 -0.005,0.295C0.008,0.269 0.027,0.244 0.051,0.221C0.074,0.198 0.102,0.175 0.134,0.154C0.166,0.133 0.201,0.112 0.24,0.092C0.251,0.087 0.261,0.081 0.272,0.076C0.283,0.07 0.325,0.047 0.335,0.042L0.371,-0.069C0.351,-0.046 0.331,-0.028 0.311,-0.016C0.291,-0.003 0.272,0.005 0.254,0.01C0.236,0.015 0.22,0.017 0.205,0.017C0.174,0.017 0.148,0.01 0.127,-0.003C0.105,-0.016 0.088,-0.036 0.077,-0.061C0.065,-0.086 0.059,-0.116 0.059,-0.151C0.059,-0.18 0.063,-0.212 0.071,-0.245C0.079,-0.278 0.091,-0.311 0.108,-0.344C0.124,-0.376 0.145,-0.405 0.17,-0.432C0.195,-0.459 0.225,-0.48 0.26,-0.496C0.295,-0.511 0.334,-0.519 0.379,-0.519C0.394,-0.519 0.409,-0.517 0.424,-0.514C0.439,-0.511 0.453,-0.506 0.466,-0.501C0.479,-0.495 0.492,-0.488 0.504,-0.48L0.505,-0.484C0.51,-0.497 0.515,-0.506 0.52,-0.51C0.525,-0.513 0.535,-0.515 0.55,-0.515C0.571,-0.515 0.584,-0.512 0.59,-0.506C0.595,-0.499 0.596,-0.489 0.591,-0.476L0.36,0.233C0.345,0.282 0.328,0.323 0.311,0.357C0.294,0.391 0.275,0.419 0.255,0.44C0.235,0.46 0.213,0.476 0.189,0.486C0.165,0.495 0.139,0.5 0.11,0.5ZM0.123,0.423C0.143,0.423 0.162,0.416 0.18,0.403C0.197,0.39 0.214,0.369 0.23,0.341C0.245,0.313 0.26,0.276 0.275,0.231L0.304,0.139C0.298,0.142 0.292,0.146 0.287,0.149C0.282,0.152 0.276,0.154 0.271,0.157C0.266,0.16 0.26,0.163 0.255,0.166C0.226,0.182 0.2,0.198 0.177,0.215C0.154,0.231 0.134,0.247 0.117,0.263C0.099,0.279 0.087,0.296 0.078,0.313C0.069,0.33 0.065,0.347 0.065,0.366C0.065,0.379 0.067,0.389 0.072,0.398C0.077,0.407 0.084,0.413 0.093,0.417C0.101,0.421 0.112,0.423 0.123,0.423ZM0.234,-0.063C0.256,-0.063 0.278,-0.069 0.299,-0.081C0.32,-0.093 0.341,-0.11 0.361,-0.132C0.381,-0.154 0.4,-0.18 0.418,-0.211L0.484,-0.415C0.467,-0.424 0.45,-0.431 0.434,-0.435C0.418,-0.438 0.402,-0.44 0.385,-0.44C0.35,-0.44 0.319,-0.434 0.293,-0.421C0.266,-0.408 0.244,-0.392 0.226,-0.371C0.207,-0.349 0.192,-0.327 0.181,-0.302C0.17,-0.277 0.162,-0.252 0.157,-0.227C0.152,-0.202 0.149,-0.18 0.149,-0.16C0.149,-0.139 0.152,-0.121 0.159,-0.107C0.165,-0.092 0.174,-0.081 0.187,-0.074C0.2,-0.067 0.215,-0.063 0.234,-0.063Z" style="fill-rule:nonzero;stroke:black;stroke-width:0.01px;stroke-linejoin:round;stroke-miterlimit:2;"/>
                    </g>
                    <g transform="matrix(50.1389,0,0,50.1389,790.493,261.867)">
                        <path d="M-0.248,0.106C-0.254,0.108 -0.259,0.106 -0.263,0.1C-0.266,0.094 -0.269,0.086 -0.27,0.077C-0.271,0.067 -0.271,0.058 -0.269,0.05C-0.267,0.041 -0.263,0.035 -0.257,0.032C-0.221,0.015 -0.187,-0.003 -0.154,-0.02C-0.121,-0.037 -0.089,-0.053 -0.06,-0.069C-0.031,-0.084 -0.003,-0.099 0.022,-0.113C0.047,-0.126 0.07,-0.138 0.09,-0.149C0.095,-0.152 0.101,-0.15 0.106,-0.145C0.111,-0.14 0.116,-0.133 0.12,-0.125C0.123,-0.116 0.125,-0.108 0.126,-0.1C0.127,-0.092 0.124,-0.087 0.119,-0.084C0.096,-0.071 0.072,-0.058 0.045,-0.044C0.018,-0.029 -0.01,-0.014 -0.041,0.002C-0.071,0.018 -0.103,0.035 -0.138,0.052C-0.173,0.069 -0.209,0.087 -0.248,0.106Z" style="fill-rule:nonzero;stroke:black;stroke-width:0.01px;stroke-linejoin:round;stroke-miterlimit:2;"/>
                    </g>
                    <g transform="matrix(50.1389,0,0,50.1389,790.493,261.867)">
                    </g>
                    <g transform="matrix(50.1389,0,0,50.1389,790.493,261.867)">
                    </g>
                    <g transform="matrix(50.1389,0,0,50.1389,790.493,261.867)">
                        <path d="M0.291,0.019C0.244,0.019 0.204,0.011 0.171,-0.006C0.137,-0.023 0.111,-0.048 0.093,-0.083C0.075,-0.117 0.066,-0.16 0.066,-0.211C0.066,-0.241 0.072,-0.274 0.085,-0.309C0.097,-0.344 0.115,-0.378 0.14,-0.41C0.164,-0.442 0.194,-0.468 0.23,-0.489C0.266,-0.509 0.307,-0.519 0.354,-0.519C0.375,-0.519 0.394,-0.515 0.411,-0.507C0.428,-0.499 0.442,-0.488 0.453,-0.473C0.464,-0.458 0.469,-0.439 0.469,-0.416C0.469,-0.387 0.462,-0.358 0.447,-0.331C0.432,-0.304 0.41,-0.277 0.383,-0.251C0.355,-0.225 0.322,-0.199 0.284,-0.174C0.245,-0.149 0.203,-0.123 0.156,-0.098L0.13,-0.165C0.172,-0.188 0.209,-0.21 0.24,-0.231C0.271,-0.252 0.297,-0.273 0.318,-0.293C0.339,-0.312 0.354,-0.331 0.365,-0.349C0.375,-0.366 0.38,-0.383 0.38,-0.399C0.38,-0.412 0.377,-0.422 0.37,-0.429C0.363,-0.436 0.353,-0.439 0.34,-0.439C0.31,-0.439 0.284,-0.431 0.261,-0.415C0.238,-0.398 0.218,-0.378 0.203,-0.353C0.187,-0.328 0.175,-0.303 0.168,-0.278C0.16,-0.253 0.156,-0.231 0.156,-0.213C0.156,-0.182 0.16,-0.157 0.169,-0.137C0.178,-0.117 0.189,-0.101 0.204,-0.09C0.218,-0.079 0.234,-0.071 0.251,-0.066C0.268,-0.061 0.284,-0.059 0.301,-0.059C0.31,-0.059 0.317,-0.055 0.321,-0.047C0.324,-0.039 0.326,-0.03 0.325,-0.02C0.324,-0.01 0.32,-0.001 0.314,0.007C0.308,0.015 0.3,0.019 0.291,0.019Z" style="fill-rule:nonzero;stroke:black;stroke-width:0.01px;stroke-linejoin:round;stroke-miterlimit:2;"/>
                    </g>
                    <g transform="matrix(50.1389,0,0,50.1389,814.91,261.867)">
                        <path d="M-0.211,0.019C-0.217,0.019 -0.221,0.015 -0.224,0.007C-0.227,-0.001 -0.227,-0.01 -0.226,-0.02C-0.225,-0.03 -0.222,-0.039 -0.217,-0.047C-0.212,-0.055 -0.205,-0.059 -0.197,-0.059C-0.16,-0.059 -0.127,-0.063 -0.096,-0.071C-0.065,-0.079 -0.038,-0.09 -0.013,-0.103C0.013,-0.116 0.035,-0.131 0.054,-0.146C0.073,-0.161 0.089,-0.176 0.103,-0.19C0.108,-0.195 0.114,-0.195 0.121,-0.192C0.128,-0.189 0.135,-0.184 0.14,-0.178C0.145,-0.171 0.145,-0.166 0.141,-0.161C0.125,-0.142 0.106,-0.122 0.084,-0.101C0.062,-0.08 0.037,-0.06 0.009,-0.042C-0.02,-0.024 -0.052,-0.009 -0.089,0.002C-0.125,0.013 -0.166,0.019 -0.211,0.019Z" style="fill-rule:nonzero;stroke:black;stroke-width:0.01px;stroke-linejoin:round;stroke-miterlimit:2;"/>
                    </g>
                    <g transform="matrix(50.1389,0,0,50.1389,814.96,261.867)">
                    </g>
                    <g transform="matrix(50.1389,0,0,50.1389,814.96,261.867)">
                    </g>
                    <g transform="matrix(50.1389,0,0,50.1389,814.96,261.867)">
                    </g>
                    <g transform="matrix(50.1389,0,0,50.1389,814.96,261.867)">
                        <path d="M0.534,0.017C0.511,0.017 0.491,0.013 0.474,0.005C0.457,-0.003 0.444,-0.015 0.435,-0.03C0.426,-0.045 0.421,-0.062 0.42,-0.083C0.419,-0.104 0.423,-0.127 0.431,-0.153L0.494,-0.344C0.501,-0.365 0.503,-0.382 0.5,-0.397C0.497,-0.411 0.49,-0.422 0.479,-0.429C0.467,-0.436 0.451,-0.44 0.43,-0.44C0.411,-0.44 0.393,-0.437 0.374,-0.43C0.355,-0.423 0.336,-0.414 0.318,-0.401C0.3,-0.388 0.283,-0.373 0.267,-0.356C0.25,-0.339 0.235,-0.319 0.222,-0.297L0.129,-0.011C0.126,-0.002 0.122,0.004 0.115,0.009C0.108,0.013 0.096,0.015 0.081,0.015C0.07,0.015 0.06,0.013 0.051,0.008C0.042,0.003 0.039,-0.005 0.044,-0.018L0.194,-0.483C0.199,-0.496 0.204,-0.505 0.211,-0.509C0.217,-0.513 0.226,-0.515 0.239,-0.515C0.26,-0.515 0.273,-0.512 0.279,-0.506C0.284,-0.499 0.285,-0.489 0.28,-0.476L0.264,-0.426C0.278,-0.441 0.293,-0.455 0.309,-0.466C0.325,-0.477 0.341,-0.487 0.358,-0.495C0.375,-0.503 0.392,-0.509 0.409,-0.513C0.426,-0.517 0.444,-0.519 0.461,-0.519C0.501,-0.519 0.531,-0.51 0.552,-0.492C0.572,-0.473 0.583,-0.448 0.586,-0.417C0.589,-0.385 0.583,-0.349 0.57,-0.308L0.516,-0.141C0.506,-0.11 0.505,-0.088 0.512,-0.076C0.519,-0.064 0.535,-0.058 0.559,-0.058C0.568,-0.058 0.575,-0.054 0.579,-0.047C0.582,-0.039 0.583,-0.03 0.582,-0.021C0.58,-0.011 0.575,-0.002 0.567,0.006C0.559,0.013 0.548,0.017 0.534,0.017Z" style="fill-rule:nonzero;stroke:black;stroke-width:0.01px;stroke-linejoin:round;stroke-miterlimit:2;"/>
                    </g>
                    <g transform="matrix(50.1389,0,0,50.1389,848.604,261.867)">
                        <path d="M-0.137,0.017C-0.146,0.017 -0.153,0.013 -0.157,0.006C-0.161,-0.002 -0.162,-0.011 -0.16,-0.021C-0.158,-0.03 -0.153,-0.039 -0.145,-0.047C-0.137,-0.054 -0.126,-0.058 -0.112,-0.058C-0.09,-0.058 -0.069,-0.062 -0.048,-0.069C-0.027,-0.076 -0.007,-0.087 0.012,-0.101C0.031,-0.114 0.05,-0.131 0.068,-0.15C0.085,-0.169 0.102,-0.191 0.118,-0.216C0.124,-0.225 0.131,-0.23 0.138,-0.229C0.145,-0.228 0.15,-0.225 0.155,-0.219C0.159,-0.213 0.159,-0.206 0.156,-0.199C0.142,-0.166 0.125,-0.137 0.105,-0.11C0.084,-0.083 0.061,-0.061 0.036,-0.042C0.01,-0.023 -0.017,-0.008 -0.047,0.002C-0.076,0.012 -0.106,0.017 -0.137,0.017Z" style="fill-rule:nonzero;stroke:black;stroke-width:0.01px;stroke-linejoin:round;stroke-miterlimit:2;"/>
                    </g>
                    <g transform="matrix(50.1389,0,0,50.1389,848.604,261.867)">
                    </g>
                    <g transform="matrix(50.1389,0,0,50.1389,848.604,261.867)">
                    </g>
                    <g transform="matrix(50.1389,0,0,50.1389,848.604,261.867)">
                        <path d="M0.171,0.017C0.132,0.017 0.106,0.008 0.091,-0.011C0.076,-0.029 0.069,-0.053 0.071,-0.082C0.073,-0.111 0.079,-0.143 0.09,-0.178L0.168,-0.42L0.089,-0.42C0.082,-0.42 0.077,-0.423 0.074,-0.43C0.071,-0.437 0.072,-0.447 0.075,-0.46C0.079,-0.473 0.084,-0.483 0.091,-0.49C0.097,-0.497 0.104,-0.5 0.111,-0.5L0.194,-0.5L0.258,-0.698C0.262,-0.711 0.267,-0.72 0.274,-0.724C0.28,-0.728 0.29,-0.73 0.303,-0.73C0.324,-0.73 0.337,-0.727 0.343,-0.721C0.348,-0.714 0.349,-0.704 0.344,-0.691L0.283,-0.5L0.409,-0.5C0.416,-0.5 0.421,-0.497 0.424,-0.491C0.427,-0.484 0.426,-0.474 0.423,-0.46C0.419,-0.447 0.414,-0.438 0.407,-0.431C0.4,-0.424 0.393,-0.42 0.386,-0.42L0.258,-0.42L0.164,-0.13C0.157,-0.107 0.155,-0.089 0.159,-0.077C0.163,-0.064 0.172,-0.058 0.186,-0.058C0.208,-0.058 0.227,-0.065 0.242,-0.079C0.257,-0.093 0.269,-0.105 0.278,-0.116C0.282,-0.121 0.288,-0.125 0.295,-0.128C0.302,-0.131 0.31,-0.128 0.321,-0.121C0.332,-0.114 0.338,-0.108 0.339,-0.101C0.339,-0.093 0.337,-0.086 0.333,-0.079C0.324,-0.065 0.313,-0.051 0.299,-0.036C0.284,-0.021 0.267,-0.008 0.246,0.002C0.225,0.012 0.2,0.017 0.171,0.017Z" style="fill-rule:nonzero;stroke:black;stroke-width:0.01px;stroke-linejoin:round;stroke-miterlimit:2;"/>
                    </g>
                    <g transform="matrix(50.1389,0,0,50.1389,848.604,261.867)">
                    </g>
                    <g transform="matrix(50.1389,0,0,50.1389,868.057,261.867)">
                    </g>
                </g>
                <g id="stroke-layer" transform="matrix(1.51256,0,0,1.80485,681.436,1344.75)">
                    <path d="M43.804,27.132C41.826,25.156 38.852,24.918 36.245,24.397C34.077,23.964 31.899,23.768 29.697,24.040C20.837,25.138 15.212,32.864 13.131,41.107C12.262,44.550 11.762,48.469 12.977,51.891C13.315,52.843 13.795,53.747 14.439,54.524C17.075,57.702 21.640,57.649 25.143,56.127C26.792,55.410 28.206,54.275 29.785,53.425C32.650,51.880 35.384,50.756 36.720,47.501C38.598,42.925 40.106,37.942 41.381,33.159C42.183,30.153 42.304,27.203 44.230,24.636C45.892,22.594 43.116,26.294 42.789,27.102C41.963,29.142 41.853,31.443 41.263,33.560C40.249,37.199 39.073,40.872 37.701,44.389C36.854,46.561 35.493,48.818 35.287,51.182C35.021,54.230 37.428,56.556 40.222,57.135C45.708,58.273 54.742,53.532 57.195,48.552C58.546,45.808 58.719,42.653 59.541,39.738C60.641,35.833 62.565,32.227 65.385,29.315C69.848,24.708 76.227,22.912 82.413,24.458C84.659,25.020 86.682,25.938 88.195,27.755C88.340,27.982 88.789,28.782 88.866,27.655C88.895,27.222 88.053,26.557 87.781,26.339C86.618,25.405 85.142,25.015 83.723,24.680C78.968,23.558 74.211,23.532 69.805,25.914C63.214,29.478 60.044,36.489 58.548,43.559C57.640,47.852 57.259,51.750 60.736,55.025C64.154,58.244 68.612,57.003 72.477,55.477C74.979,54.489 77.654,53.878 79.631,51.918C82.301,49.272 83.382,45.585 84.483,42.095C85.444,39.050 86.552,36.027 87.337,32.930C88.120,29.843 88.198,27.001 90.247,24.411C91.282,23.186 89.504,25.390 89.280,25.772C88.449,27.188 88.193,28.773 87.908,30.368C87.015,35.367 85.234,40.585 83.253,45.251C82.089,47.990 80.403,50.632 79.896,53.608C79.511,55.869 80.091,58.206 79.415,60.427C78.564,63.224 76.001,65.013 75.168,67.837C74.593,69.786 74.621,71.863 74.155,73.839C73.242,77.707 71.772,81.653 69.798,85.096C66.932,90.095 59.890,95.773 54.440,90.730C51.591,88.093 51.737,84.272 53.426,81.025C56.018,76.045 61.238,72.379 66.013,69.735C68.725,68.233 71.956,68.199 74.587,66.626C76.744,65.337 78.035,63.034 80.180,61.729C81.764,60.766 83.580,60.475 85.327,59.955C86.871,59.496 88.316,58.807 89.747,58.073C92.767,56.525 95.703,54.789 98.762,53.323C100.387,52.543 102.156,52.064 103.733,51.185C105.861,49.999 107.447,48.162 109.702,47.146C114.927,44.794 119.980,41.403 123.712,36.961C125.388,34.966 127.014,32.445 127.278,29.776C127.580,26.736 125.001,24.443 122.207,23.969C120.059,23.604 117.797,24.170 115.847,25.075C109.966,27.804 105.110,35.085 104.717,41.636C104.596,43.654 105.125,45.556 105.600,47.493C106.334,50.491 107.121,53.317 109.777,55.165C114.947,58.763 122.345,57.448 127.805,55.304C129.470,54.650 131.062,53.806 132.764,53.250C134.774,52.594 136.829,52.271 138.508,50.868C142.315,47.685 142.898,41.950 144.531,37.529C146.097,33.290 148.634,29.684 148.794,25.027C148.795,24.818 148.763,24.605 148.799,24.400C148.828,24.239 148.846,23.866 148.985,23.948C149.025,23.971 148.941,25.631 148.838,26.359C148.433,29.209 147.145,31.687 145.927,34.247C144.371,37.517 143.508,41.018 142.189,44.378C140.225,49.379 138.677,50.439 138.091,56.289C138.073,56.491 138.085,56.698 138.036,56.895C138.016,56.975 137.905,57.176 137.892,57.095C137.683,55.765 138.410,53.583 138.771,52.299C139.696,49.016 141.642,46.112 142.745,42.880C143.857,39.617 144.552,35.916 146.464,33.019C149.555,28.336 158.552,24.065 164.094,23.916C169.166,23.779 171.504,27.278 170.788,32.161C169.985,37.638 167.383,42.844 165.883,48.147C165.254,50.370 164.585,53.263 166.119,55.276C167.271,56.787 169.285,57.211 171.070,57.276C175.005,57.420 178.207,55.713 181.701,54.175C183.244,53.496 184.850,52.928 186.176,51.845C189.895,48.810 190.875,42.920 192.240,38.540C192.892,36.445 193.591,34.339 194.063,32.194C194.365,30.822 194.503,29.401 194.954,28.065C195.671,25.940 197.251,24.268 197.895,22.103C199.168,17.828 199.773,13.520 201.863,9.505C201.959,9.328 202.070,9.158 202.151,8.973C202.241,8.768 201.907,9.350 201.806,9.550C201.537,10.090 201.278,10.634 201.043,11.189C200.498,12.477 200.065,13.814 199.646,15.148C198.810,17.806 198.660,20.767 197.615,23.331C196.845,25.219 195.478,26.758 194.878,28.734C194.412,30.271 194.198,31.878 193.773,33.428C192.824,36.888 191.671,40.333 190.487,43.718C189.578,46.318 187.840,49.049 188.052,51.895C188.695,60.552 198.333,57.251 201.642,52.559M188.545,25.397C190.242,25.517 191.963,25.878 193.667,25.710C195.460,25.533 197.137,24.759 198.941,24.647C201.789,24.471 204.740,25.303 207.623,25.318" style="fill:none;fill-rule:nonzero;stroke:rgb(255,41,5);stroke-opacity:0.72;stroke-width:10.57px;stroke-linecap:round;stroke-linejoin:round;"/>
                </g>
                <g id="os-layer" transform="matrix(0.942408,0,0,1.13625,379.074,1127.7)">
                    <g transform="matrix(50.1389,0,0,50.1389,799.86,261.867)">
                    </g>
                    <text x="727.418px" y="261.867px" style="font-family:'Helvetica-Bold', 'Helvetica';font-weight:700;font-size:50.139px;">OS</text>
                </g>
            </g>
        </g>
    </g>
</svg>
